<?xml version="1.0"?>
<svg xmlns="http://www.w3.org/2000/svg" xmlns:xlink="http://www.w3.org/1999/xlink" xmlns:svgjs="http://svgjs.com/svgjs" version="1.1" width="512" height="512" x="0" y="0" viewBox="0 0 64 64" style="enable-background:new 0 0 512 512" xml:space="preserve" class=""><g><g xmlns="http://www.w3.org/2000/svg" id="Fill_Outline" data-name="Fill Outline"><g id="Color"><path d="m3 15h54v46h-54z" fill="#ade8f4" data-original="#ade8f4" style="" class=""/><path d="m57 42.01v18.99h-54v-46h10v13a18.01 18.01 0 0 0 9.42 15.83l3.49-4.89a6.982 6.982 0 0 1 5.69-2.93h1.26l6.64-11.51a3 3 0 0 1 5.2 3l-4.92 8.51h1.61a6.746 6.746 0 0 1 5.61 3 6.768 6.768 0 0 0 5.61 3z" fill="#5b71e9" data-original="#48cae4" style="" class=""/><path d="m9 21h8v8h-8z" fill="#ef5350" data-original="#ef5350" style="" class=""/><path d="m23 21h8v8h-8z" fill="#ef5350" data-original="#ef5350" style="" class=""/><path d="m37 21h8v8h-8z" fill="#ef5350" data-original="#ef5350" style="" class=""/><path d="m9 35h8v8h-8z" fill="#ef5350" data-original="#ef5350" style="" class=""/><path d="m23 35h8v8h-8z" fill="#ef5350" data-original="#ef5350" style="" class=""/><path d="m9 49h8v8h-8z" fill="#e53935" data-original="#e53935" style="" class=""/><path d="m3 7h54v8h-54z" fill="#ef5350" data-original="#ef5350" style="" class=""/><g fill="#e53935"><path d="m18 11a1 1 0 0 1 -1 1c-2.21 0-4-2.24-4-5h2c0 1.63.92 3 2 3a1 1 0 0 1 1 1z" fill="#e53935" data-original="#e53935" style="" class=""/><path d="m43 11a1 1 0 0 1 -1 1c-2.21 0-4-2.24-4-5h2c0 1.63.92 3 2 3a1 1 0 0 1 1 1z" fill="#e53935" data-original="#e53935" style="" class=""/><path d="m49 11a1 1 0 0 1 -1 1c-2.21 0-4-2.24-4-5h2c0 1.63.92 3 2 3a1 1 0 0 1 1 1z" fill="#e53935" data-original="#e53935" style="" class=""/><path d="m57 11v4h-54v-8h8.35a5.981 5.981 0 0 0 5.65 4z" fill="#e53935" data-original="#e53935" style="" class=""/><path d="m13.03 29h-4.03v-8h4v7c0 .34.01.67.03 1z" fill="#e53935" data-original="#e53935" style="" class=""/><path d="m45 25.24v1.53a2.682 2.682 0 0 1 -.3.73l-.87 1.5h-6.83v-.17l2.5-4.33a3 3 0 0 1 5.5.74z" fill="#e53935" data-original="#e53935" style="" class=""/><path d="m17 39.3v3.7h-8v-8h5.41a17.706 17.706 0 0 0 2.59 4.3z" fill="#e53935" data-original="#e53935" style="" class=""/><path d="m31 36.04v6.96h-7.99l2.9-4.06a6.945 6.945 0 0 1 5.09-2.9z" fill="#e53935" data-original="#e53935" style="" class=""/></g><path d="m61 38.008v5h-30l-2.49 3.73a2.862 2.862 0 1 1 -4.71-3.25l6.11-8.55a6.982 6.982 0 0 1 5.69-2.93h9.79a6.746 6.746 0 0 1 5.61 3 6.768 6.768 0 0 0 5.61 3z" fill="#edb88e" data-original="#edb88e" style=""/><path d="m61 38.008v5h-30l-2.49 3.73a2.855 2.855 0 0 1 -5.05-2.59 7.193 7.193 0 0 0 6.16-3.51l5.15-8.58a7.55 7.55 0 0 1 .83-.05h9.79a6.746 6.746 0 0 1 5.61 3 6.768 6.768 0 0 0 5.61 3z" fill="#da9367" data-original="#da9367" style=""/><path d="m31.2 53.811-5.6 3.7.4-6.7 17.5-30.311a3 3 0 0 1 4.1-1.1 3 3 0 0 1 1.1 4.1z" fill="#e9f1f2" data-original="#e9f1f2" style=""/><path d="m49.1 22.008a2.976 2.976 0 0 1 -.4 1.49l-17.5 30.31-5.6 3.7.4-6.7 5.66-9.8h.31a6.013 6.013 0 0 0 5.2-3l9.53-16.508a2.96 2.96 0 0 0 .26-2.37 2.729 2.729 0 0 1 .64.27 3.019 3.019 0 0 1 1.5 2.608z" fill="#d0d8da" data-original="#d0d8da" style="" class=""/><path d="m40.598 24.331h6v4h-6z" fill="#93999a" transform="matrix(.866 .5 -.5 .866 19.006 -18.271)" data-original="#93999a" style=""/><path d="m47.2 26.098-2 3.47-2.37-1.37 2-3.47z" fill="#656b76" data-original="#656b76" style=""/><path d="m56.61 38.008a6.768 6.768 0 0 1 -5.61-3 6.746 6.746 0 0 0 -5.61-3h-1.61l-4.04 7h2.138a2.086 2.086 0 0 1 2.093 1.658 2.005 2.005 0 0 1 -1.971 2.342h-11.5a3.5 3.5 0 0 0 -3.5 3.5 3.5 3.5 0 0 0 3.5 3.5h9.129a13.026 13.026 0 0 1 7.729 2.4 13.419 13.419 0 0 0 7.943 2.6h5.699v-17z" fill="#f9dbaf" data-original="#f9dbaf" style=""/><path d="m61 46.308v8.7h-5.7a13.425 13.425 0 0 1 -7.94-2.6 12.994 12.994 0 0 0 -7.73-2.4h-9.13a3.517 3.517 0 0 1 -3.5-3.5 3.28 3.28 0 0 1 .35-1.5 3.271 3.271 0 0 0 .68.97 3.46 3.46 0 0 0 2.47 1.03h9.13a12.994 12.994 0 0 1 7.73 2.4 13.425 13.425 0 0 0 7.94 2.6 5.7 5.7 0 0 0 5.7-5.7z" fill="#edb88e" data-original="#edb88e" style=""/></g><g id="Outline_copy" fill="#323232" data-name="Outline copy"><path d="m18 21a1 1 0 0 0 -1-1h-8a1 1 0 0 0 -1 1v8a1 1 0 0 0 1 1h8a1 1 0 0 0 1-1zm-2 7h-6v-6h6z" fill="#0e1010" data-original="#323232" style="" class=""/><path d="m23 30h8a1 1 0 0 0 1-1v-8a1 1 0 0 0 -1-1h-8a1 1 0 0 0 -1 1v8a1 1 0 0 0 1 1zm1-8h6v6h-6z" fill="#0e1010" data-original="#323232" style="" class=""/><path d="m18 35a1 1 0 0 0 -1-1h-8a1 1 0 0 0 0 2h7v6h-6v-3a1 1 0 0 0 -2 0v4a1 1 0 0 0 1 1h8a1 1 0 0 0 1-1z" fill="#0e1010" data-original="#323232" style="" class=""/><path d="m17 48h-8a1 1 0 0 0 -1 1v8a1 1 0 0 0 1 1h8a1 1 0 0 0 1-1v-8a1 1 0 0 0 -1-1zm-1 8h-6v-6h6z" fill="#0e1010" data-original="#323232" style="" class=""/><path d="m57 58a1 1 0 0 0 -1 1v1h-52v-52h4.081c.372 2.279 1.987 4 3.919 4a1 1 0 0 0 0-2c-.851 0-1.59-.85-1.873-2h3.954c.372 2.279 1.987 4 3.919 4a1 1 0 0 0 0-2c-.851 0-1.59-.85-1.873-2h19.873a1 1 0 0 0 0-2h-14.081c-.372-2.279-1.987-4-3.919-4a3.708 3.708 0 0 0 -3 1.728 3.708 3.708 0 0 0 -3-1.728c-1.932 0-3.547 1.721-3.919 4h-5.081a1 1 0 0 0 -1 1v54a1 1 0 0 0 1 1h54a1 1 0 0 0 1-1v-2a1 1 0 0 0 -1-1zm-39-54c.851 0 1.59.85 1.873 2h-3.746c.283-1.15 1.022-2 1.873-2zm-6 0c.851 0 1.59.85 1.873 2h-3.746c.283-1.15 1.022-2 1.873-2z" fill="#0e1010" data-original="#323232" style="" class=""/><path d="m43 12a1 1 0 0 0 0-2c-.851 0-1.59-.85-1.873-2h3.954c.372 2.279 1.987 4 3.919 4a1 1 0 0 0 0-2c-.851 0-1.59-.85-1.873-2h8.873v6h-49a1 1 0 0 0 0 2h49v18a1 1 0 0 0 2 0v-27a1 1 0 0 0 -1-1h-4.081c-.372-2.279-1.987-4-3.919-4a3.708 3.708 0 0 0 -3 1.728 3.708 3.708 0 0 0 -3-1.728c-2.206 0-4 2.243-4 5s1.794 5 4 5zm6-8c.851 0 1.59.85 1.873 2h-3.746c.283-1.15 1.022-2 1.873-2zm-6 0c.851 0 1.59.85 1.873 2h-3.746c.283-1.15 1.022-2 1.873-2z" fill="#0e1010" data-original="#323232" style="" class=""/><path d="m61 54h-5.7a12.344 12.344 0 0 1 -7.352-2.409 13.919 13.919 0 0 0 -8.319-2.591 1 1 0 1 0 0 2 11.942 11.942 0 0 1 7.137 2.2 14.326 14.326 0 0 0 8.534 2.8h5.7a1 1 0 0 0 0-2z" fill="#0e1010" data-original="#323232" style="" class=""/><path d="m53.9 36.319a5.656 5.656 0 0 1 -2.071-1.875 7.728 7.728 0 0 0 -6.318-3.436l4.049-7.015a4 4 0 1 0 -6.928-4v.007h-5.632a1 1 0 0 0 -1 1v8a.988.988 0 0 0 .871.974l-.592 1.026h-.679a7.984 7.984 0 0 0 -6.222 3h-6.378a1 1 0 0 0 -1 1v8a.986.986 0 0 0 .51.853 3.818 3.818 0 0 0 3.39 5.133l-.766 1.314a1 1 0 0 0 -.132.44l-.4 6.7a1 1 0 0 0 1.548.894l5.6-3.7a1 1 0 0 0 .315-.334l1.905-3.3h2.03a1 1 0 0 0 0-2h-5.5a2.5 2.5 0 0 1 0-5h11.5a3.007 3.007 0 0 0 2.958-3.508 3.1 3.1 0 0 0 -3.08-2.492h-.4l2.887-5h1.025a5.736 5.736 0 0 1 4.775 2.551 7.766 7.766 0 0 0 6.445 3.449h4.39a1 1 0 0 0 0-2h-4.39a5.706 5.706 0 0 1 -2.71-.681zm-17.044 5.681h-4.618l8.128-14.079 3.464 2zm5.51-17.543 3.464 2-1 1.732-3.464-2zm3.214-4.4a2 2 0 0 1 2.25 2.932l-1 1.732-3.464-2 1-1.732a1.984 1.984 0 0 1 1.214-.928zm-7.58 7.943v-6h3.475l-3.464 6zm-14 13.48v-5.48h3.916zm6.5 9.52h1.16l-1.212 2.1-3.732 2.464.268-4.463.663-1.149a4.458 4.458 0 0 0 2.853 1.048zm-4.5-4.5a4.5 4.5 0 0 0 .05.5 1.859 1.859 0 0 1 -1.437-2.934l6.112-8.552a5.986 5.986 0 0 1 4.382-2.48l-5.214 9.031a4.492 4.492 0 0 0 -3.893 4.435zm15.878-6.5a1.1 1.1 0 0 1 1.107.824.988.988 0 0 1 -.221.818 1 1 0 0 1 -.764.358h-2.834l1.155-2z" fill="#0e1010" data-original="#323232" style="" class=""/></g></g></g></svg>
